<svg xmlns="http://www.w3.org/2000/svg" viewBox="0 0 64 64">
  <defs>
    <linearGradient id="tether-grad" x1="10%" x2="90%" y1="10%" y2="90%">
      <stop offset="0%" stop-color="#3cc68a"/>
      <stop offset="100%" stop-color="#26a17b"/>
    </linearGradient>
  </defs>
  <rect width="64" height="64" rx="16" fill="url(#tether-grad)"/>
  <path fill="#fff" d="M47 18.5H17v6.1h10.8v4.5c-2.3.2-4.5.5-6.2.8-1.9.3-3 .7-3 .7v5.8s5.7 1.4 13.4 1.4S45.4 36 45.4 36v-5.8s-1.1-.4-3-.7c-1.6-.3-3.9-.6-6.2-.8v-4.5H47v-6.1Zm-9.6 14c.7.1 1.3.2 1.9.3 1.9.4 2.8.8 2.8.8v2.3s-4.4 1-9.1 1c-4.8 0-9.2-1-9.2-1v-2.3s.9-.4 2.8-.8c.6-.1 1.2-.2 1.9-.3 1.1-.1 2.6-.2 4.5-.2 1.8 0 3.4.1 4.4.2Z"/>
</svg>
